{
	"asset":{
		"generator":"Khronos glTF Blender I/O v4.2.70",
		"version":"2.0"
	},
	"extensionsUsed":[
		"KHR_materials_specular"
	],
	"scene":0,
	"scenes":[
		{
			"name":"Scene",
			"nodes":[
				0
			]
		}
	],
	"nodes":[
		{
			"mesh":0,
			"name":"object_0",
			"rotation":[
				0.04417220503091812,
				0.9001017808914185,
				0.09396655857563019,
				0.42312633991241455
			],
			"translation":[
				-0.026139220222830772,
				0.05066128075122833,
				0.00700878631323576
			]
		}
	],
	"materials":[
		{
			"doubleSided":true,
			"extensions":{
				"KHR_materials_specular":{
					"specularColorFactor":[
						2.0,
						2.0,
						2.0
					]
				}
			},
			"name":"object_0",
			"pbrMetallicRoughness":{
				"baseColorTexture":{
					"index":0
				}
			}
		}
	],
	"meshes":[
		{
			"name":"Mesh",
			"primitives":[
				{
					"attributes":{
						"POSITION":0,
						"NORMAL":1,
						"TEXCOORD_0":2
					},
					"indices":3,
					"material":0
				}
			]
		}
	],
	"textures":[
		{
			"sampler":0,
			"source":0
		}
	],
	"images":[
		{
			"mimeType":"image/png",
			"name":"RGB_9a4bfef77a36415a9a20378284b4c667_textured_0_bz7mQbmG-gigapixel-very_compres",
			"uri":"RGB_9a4bfef77a36415a9a20378284b4c667_textured_0_bz7mQbmG-gigapixel-very_compres.png"
		}
	],
	"accessors":[
		{
			"bufferView":0,
			"componentType":5126,
			"count":19836,
			"max":[
				1.1248112916946411,
				2.516329765319824,
				0.27160000801086426
			],
			"min":[
				-1.1050000190734863,
				-2.5215001106262207,
				-0.2746094763278961
			],
			"type":"VEC3"
		},
		{
			"bufferView":1,
			"componentType":5126,
			"count":19836,
			"type":"VEC3"
		},
		{
			"bufferView":2,
			"componentType":5126,
			"count":19836,
			"type":"VEC2"
		},
		{
			"bufferView":3,
			"componentType":5123,
			"count":103977,
			"type":"SCALAR"
		}
	],
	"bufferViews":[
		{
			"buffer":0,
			"byteLength":238032,
			"byteOffset":0,
			"target":34962
		},
		{
			"buffer":0,
			"byteLength":238032,
			"byteOffset":238032,
			"target":34962
		},
		{
			"buffer":0,
			"byteLength":158688,
			"byteOffset":476064,
			"target":34962
		},
		{
			"buffer":0,
			"byteLength":207954,
			"byteOffset":634752,
			"target":34963
		}
	],
	"samplers":[
		{
			"magFilter":9729,
			"minFilter":9987
		}
	],
	"buffers":[
		{
			"byteLength":842708,
			"uri":"mrbeast_crunch_bar.bin"
		}
	]
}
